<?xml version="1.0" encoding="utf-8"?>
<!-- Generator: Adobe Illustrator 27.7.0, SVG Export Plug-In . SVG Version: 6.00 Build 0)  -->
<svg version="1.1" id="Layer_1" xmlns="http://www.w3.org/2000/svg" xmlns:xlink="http://www.w3.org/1999/xlink" x="0px" y="0px"
	 viewBox="0 0 2361.2 1221.7" style="enable-background:new 0 0 2361.2 1221.7;" xml:space="preserve">
<style type="text/css">
	.st0{fill:#80D2E9;}
	.st1{fill:#F2EBE4;}
	.st2{fill:#CAE3EA;}
	.st3{fill:#DFF2F7;}
	.st4{fill:#FFFFFF;}
	.st5{fill:#01527B;}
	.st6{fill:#F05A28;}
	.st7{fill:#BCDDF4;}
	.st8{fill:#E8E5F2;}
	.st9{fill:#2C2858;}
	.st10{fill:#9966AA;}
	.st11{fill:#7B3E97;}
	.st12{fill:#B892C3;}
	.st13{fill:#AC67A9;}
	.st14{fill:#33276B;}
	.st15{fill:#24093A;}
	.st16{fill:#EAEAEA;}
	.st17{fill:#E42753;}
	.st18{fill:#A2BEE3;}
	.st19{fill:#3DB98A;}
	.st20{fill:#B8B1BE;}
	.st21{fill:#98969D;}
	.st22{fill:#DD9E75;}
	.st23{fill:#A76828;}
	.st24{fill:#2C3133;}
	.st25{fill:#121130;}
	.st26{fill:#525B60;}
	.st27{opacity:0.54;fill:#2B2B2B;enable-background:new    ;}
	.st28{fill:#2E3B96;}
	.st29{fill:#27276B;}
	.st30{fill:#F3F4F5;stroke:#231F20;stroke-width:2.709;stroke-miterlimit:10;}
	.st31{fill:#F79624;}
	.st32{opacity:0.2;fill:#2D334A;enable-background:new    ;}
	.st33{fill:#DEE8EC;}
	.st34{fill:#98A9AF;}
	.st35{fill:#A4C0CB;}
	.st36{fill:#B6AEA8;}
	.st37{fill:#D4CFCB;}
	.st38{fill:#A2C0CA;}
	.st39{clip-path:url(#SVGID_00000156557576734731880240000011391049245033992625_);}
	.st40{fill:#2D334A;}
	.st41{fill:#F27D84;}
	.st42{fill:#F4CBB4;}
	.st43{fill:#BBD1D8;}
	.st44{fill:#F9B563;}
	.st45{fill:#EE4156;}
	.st46{fill:none;stroke:#FFFFFF;stroke-width:1.4692;stroke-linecap:round;stroke-linejoin:round;stroke-miterlimit:10;}
	.st47{fill:#1D5388;}
	.st48{fill:#14A0DE;}
	.st49{fill:#203A72;}
</style>
<g>
	<g>
		<path class="st0" d="M2083.1,452.6c69.7,0,128.4,46.7,146.5,110.5h-293.1C1954.7,499.3,2013.4,452.6,2083.1,452.6z"/>
		<path class="st0" d="M2254.6,486.9c48.1,0,88.6,32.2,101.1,76.3h-202.3C2166,519.1,2206.5,486.9,2254.6,486.9z"/>
		<path class="st0" d="M2036.6,563.2c-19.7-68.1-97.8-119-191-119s-171.3,50.9-191,119H2036.6z"/>
	</g>
	<g>
		<path class="st1" d="M2197.9,540.7c31,0,57.1,20.8,65.2,49.1h-130.4C2140.9,561.5,2167,540.7,2197.9,540.7z"/>
		<path class="st1" d="M2274.3,555.9c21.3,0,39.4,14.3,45,33.9h-90C2234.9,570.3,2252.8,555.9,2274.3,555.9z"/>
		<path class="st1" d="M2177.3,589.9c-8.8-30.3-43.5-52.9-85-52.9s-76.2,22.6-85,52.9H2177.3z"/>
	</g>
	<path class="st2" d="M1119.5,429.6c-33.3-0.3-65.5,4.1-96.1,12.4c-77.7-101.6-199.9-167.7-337.7-168.9
		C481,271.6,308.8,413.3,264.2,604.4c-5.6-1.2-11.4-1.9-17.4-1.9c-46.7-0.4-84.8,37.1-85.2,83.8c-0.1,5.8,0.5,11.4,1.6,16.9
		C84.2,722.8,22.4,786.1,4.9,866.1c-3.1,14.3-4.9,29.1-4.9,44.4c-0.4,40.3,10.5,78.1,29.5,110.6l1336.1,10.9
		c42.2-42.1,73.9-94.9,90.5-154c8.3-29.6,12.9-60.6,13.1-92.8C1470.8,590.4,1314.2,431.3,1119.5,429.6z"/>
	<path class="st3" d="M1941.8,499.5c-39.9-0.4-78.6,4.8-115.3,14.9c-93.2-122-239.7-201.2-405-202.6
		c-245.2-1.9-451.7,168-505.2,397.3c-6.7-1.4-13.7-2.3-20.9-2.3c-56-0.5-101.7,44.6-102.1,100.5c0,7,0.6,13.7,1.9,20.3
		c-94.7,23.5-168.9,99.4-189.9,195.3c-3.8,17.2-5.8,35-6,53.2c-0.4,48.3,12.6,93.7,35.4,132.6l1602.3,13
		c50.6-50.5,88.6-113.8,108.5-184.6c9.9-35.5,15.4-72.7,15.8-111.3C2363.1,692.3,2175.3,501.4,1941.8,499.5z"/>
	<g>
		<path class="st4" d="M1152.3,447.1v327.2c0,14.3-11.6,25.8-25.8,25.8H428c-14.3,0-25.8-11.6-25.8-25.8V447.1
			c0-14.3,11.6-25.8,25.8-25.8h698.5C1140.7,421.4,1152.3,433,1152.3,447.1z"/>
		<g>
			<path class="st5" d="M902.5,721.3h-16.1v-29.2c0-4.4,3.6-8,8-8l0,0c4.4,0,8,3.6,8,8V721.3z"/>
			<path class="st5" d="M946.4,721.3h-16.1v-46.9c0-4.4,3.6-8,8-8l0,0c4.4,0,8,3.6,8,8V721.3z"/>
			<path class="st5" d="M925,721.3h-16.1v-65.1c0-4.4,3.6-8,8-8l0,0c4.4,0,8,3.6,8,8V721.3z"/>
			<path class="st5" d="M971.5,721.3h-15.9v-86.4c0-4.4,3.5-7.9,7.9-7.9l0,0c4.4,0,7.9,3.5,7.9,7.9L971.5,721.3L971.5,721.3z"/>
			<path class="st5" d="M998.4,721.3h-15.9V612.4c0-4.4,3.5-7.9,7.9-7.9l0,0c4.4,0,7.9,3.5,7.9,7.9L998.4,721.3L998.4,721.3z"/>
		</g>
		<g>
			<path class="st4" d="M916.8,606H665.5c-5.3,0-9.6-4.3-9.6-9.6V454.2c0-5.3,4.3-9.6,9.6-9.6h251.2c5.3,0,9.6,4.3,9.6,9.6v142.2
				C926.3,601.6,922,606,916.8,606z"/>
			<g>
				<path class="st5" d="M915.3,608.5h-26.2c-1.9,0-3.4-1.1-3.4-2.6c0-1.4,1.5-2.6,3.4-2.6h26.2c1.9,0,3.4,1.1,3.4,2.6
					C918.9,607.4,917.3,608.5,915.3,608.5C915.4,608.5,915.4,608.5,915.3,608.5z M862.9,608.5h-26.2c-1.9,0-3.4-1.1-3.4-2.6
					c0-1.4,1.5-2.6,3.4-2.6h26.2c1.9,0,3.4,1.1,3.4,2.6C866.3,607.4,864.8,608.5,862.9,608.5z M810.4,608.5h-26.2
					c-1.9,0-3.4-1.1-3.4-2.6c0-1.4,1.5-2.6,3.4-2.6h26.2c1.9,0,3.4,1.1,3.4,2.6C813.8,607.4,812.3,608.5,810.4,608.5z M757.9,608.5
					h-26.2c-1.9,0-3.4-1.1-3.4-2.6c0-1.4,1.5-2.6,3.4-2.6h26.2c1.9,0,3.4,1.1,3.4,2.6C761.3,607.4,759.8,608.5,757.9,608.5z
					 M705.4,608.5h-26.2c-1.9,0-3.4-1.1-3.4-2.6c0-1.4,1.5-2.6,3.4-2.6h26.2c1.9,0,3.4,1.1,3.4,2.6
					C708.9,607.4,707.3,608.5,705.4,608.5z M656.4,602.6c-1.4,0-2.9-0.8-3.3-1.9c-0.4-1-0.6-2-0.6-3.1V580c0-1.4,1.5-2.6,3.4-2.6
					c1.9,0,3.4,1.1,3.4,2.6v17.6c0,0.6,0.1,1.1,0.3,1.6c0.6,1.3-0.5,2.9-2.3,3.3C657.1,602.5,656.7,602.6,656.4,602.6z M926.3,593.2
					c-1.9,0-3.4-1.1-3.4-2.6v-20c0-1.4,1.5-2.6,3.4-2.6c1.9,0,3.4,1.1,3.4,2.6v20C929.7,592.1,928.1,593.2,926.3,593.2z M656,562.6
					c-1.9,0-3.4-1.1-3.4-2.6v-20c0-1.4,1.5-2.6,3.4-2.6c1.9,0,3.4,1.1,3.4,2.6v20C659.4,561.5,657.9,562.6,656,562.6z M926.3,553.2
					c-1.9,0-3.4-1.1-3.4-2.6v-20c0-1.4,1.5-2.6,3.4-2.6c1.9,0,3.4,1.1,3.4,2.6v20C929.7,552.1,928.1,553.2,926.3,553.2z M656,522.6
					c-1.9,0-3.4-1.1-3.4-2.6v-20c0-1.4,1.5-2.6,3.4-2.6c1.9,0,3.4,1.1,3.4,2.6v20C659.4,521.4,657.9,522.6,656,522.6z M926.3,513.3
					c-1.9,0-3.4-1.1-3.4-2.6v-20c0-1.4,1.5-2.6,3.4-2.6c1.9,0,3.4,1.1,3.4,2.6v20C929.7,512.1,928.1,513.3,926.3,513.3z M656,482.5
					c-1.9,0-3.4-1.1-3.4-2.6v-20c0-1.4,1.5-2.6,3.4-2.6c1.9,0,3.4,1.1,3.4,2.6v20C659.4,481.4,657.9,482.5,656,482.5z M926.3,473.3
					c-1.9,0-3.4-1.1-3.4-2.6v-17.6c0-0.6-0.1-1.1-0.3-1.6c-0.6-1.3,0.5-2.9,2.3-3.3c1.8-0.4,3.7,0.4,4.3,1.7
					c0.4,1.1,0.6,2.1,0.6,3.2v17.5C929.7,472,928.1,473.3,926.3,473.3z M903.1,447.3h-26.2c-1.9,0-3.4-1.1-3.4-2.6s1.5-2.6,3.4-2.6
					h26.2c1.9,0,3.4,1.1,3.4,2.6C906.5,446.1,905,447.3,903.1,447.3z M850.6,447.3h-26.2c-1.9,0-3.4-1.1-3.4-2.6s1.5-2.6,3.4-2.6
					h26.2c1.9,0,3.4,1.1,3.4,2.6C854.1,446.1,852.5,447.3,850.6,447.3z M798.1,447.3h-26.2c-1.9,0-3.4-1.1-3.4-2.6s1.5-2.6,3.4-2.6
					h26.2c1.9,0,3.4,1.1,3.4,2.6C801.6,446.1,800,447.3,798.1,447.3z M745.6,447.3h-26.2c-1.9,0-3.4-1.1-3.4-2.6s1.5-2.6,3.4-2.6
					h26.2c1.9,0,3.4,1.1,3.4,2.6C749.1,446.1,747.5,447.3,745.6,447.3z M693.2,447.3H667c-1.9,0-3.4-1.1-3.4-2.6s1.5-2.6,3.4-2.6
					h26.2c1.9,0,3.4,1.1,3.4,2.6C696.5,446.1,695,447.3,693.2,447.3z"/>
			</g>
			<g>
				<g>
					<path class="st6" d="M722,502.6c0,0,18.1-21.1,19.2-21.1c0,0,16.5,0,22.2,0l12.1,21L762,526.1c-0.2,0.3-0.2,0.7,0,1.1l14.4,25
						c0.2,0.3,0.5,0.5,0.9,0.5h27.1l12.9,22.4c0.2,0.3,0.5,0.5,0.9,0.5H847c0.4,0,0.7-0.2,0.9-0.5l12.9-22.4h26.7
						c0.4,0,0.7-0.2,0.9-0.5l14.4-25c0.2-0.3,0.2-0.7,0-1.1l-13-22.5l16.5-20.7c0.9-1.1,0.7-2.7-0.4-3.6c-0.5-0.4-1.1-0.6-1.6-0.6
						c-0.8,0-1.5,0.4-2,1l-16.7,20.9h-27c-0.4,0-0.7,0.2-0.9,0.5l-12.9,22.4h-25L806.9,501c-0.2-0.3-0.5-0.5-0.9-0.5h-25.8
						l-13.1-22.8c-0.5-0.8-1.2-1.3-2.3-1.3h-25.5l-21.2,23c-0.6,0.7-0.8,1.6-0.5,2.5c0.2,0.4,0.4,0.8,0.8,1.1
						C719.5,503.9,721.1,503.8,722,502.6z M885.2,547.4h-23.8l-12.2-21.1l11.9-20.6h24.1l12.1,20.9L885.2,547.4z M808.5,549.5
						l12.1-20.9h23.8l12.2,21.1l-11.9,20.6h-24.1L808.5,549.5z M767.6,526.6l12.1-20.9h24.1l12.1,20.9l-12.1,20.9h-24.1L767.6,526.6
						z"/>
					<path class="st6" d="M805,522.2c0.5-0.8,1.3-1.2,2.2-1.2c0.5,0,0.9,0.1,1.2,0.4c1.2,0.7,1.6,2.3,1,3.5l-10.9,18.8
						c-0.5,0.8-1.3,1.2-2.2,1.2c-0.5,0-0.9-0.1-1.2-0.4c-1.2-0.7-1.6-2.3-1-3.4L805,522.2z"/>
					<path class="st6" d="M877.5,540.6l10.8-18.7c0.5-0.8,1.3-1.2,2.2-1.2c0.5,0,0.9,0.1,1.2,0.4c1.2,0.7,1.6,2.3,1,3.4l-10.8,18.7
						c-0.5,0.8-1.3,1.2-2.2,1.2c-0.5,0-0.9-0.1-1.2-0.4C877.3,543.4,876.9,541.9,877.5,540.6z"/>
				</g>
				<g>
					<path class="st6" d="M688,511.1v-9.9c0-1.1,1-2.1,2.1-2.1c1.1,0,2.1,1,2.1,2.1V517c0,1.4-0.9,2.1-2.1,2.1
						c-0.8,0-1.6-0.6-2.5-1.6l-8.1-10.2v9.9c0,1.1-1,2.1-2.1,2.1c-1.1,0-2.1-1-2.1-2.1v-15.7c0-1.1,0.8-2.1,2-2.1
						c1,0,1.5,0.4,2.5,1.5L688,511.1z"/>
					<path class="st6" d="M708.6,501.3c0-1.1,1-2.1,2.2-2.1c1.2,0,2.2,1,2.2,2.1v15.8c0,1.1-1,2.1-2.2,2.1c-1.2,0-2.2-1-2.2-2.1v-6
						h-7v6c0,1.1-1,2.1-2.2,2.1c-1.2,0-2.2-1-2.2-2.1v-15.8c0-1.1,1-2.1,2.2-2.1c1.2,0,2.2,1,2.2,2.1v5.6h7.1L708.6,501.3
						L708.6,501.3z"/>
					<path class="st6" d="M724.5,518.1c2.2,0.5,3.5,2.2,3.5,4.5c0,1.7-0.6,3.1-1.8,4.1c-1.2,1.1-2.7,1.5-4.6,1.5
						c-2.1,0-3.7-0.5-4.9-1.5c-0.9-0.8-1.1-2-0.4-2.9c0.8-1,1.9-1,2.7-0.4c0.8,0.5,1.5,0.8,2.3,0.8c1.5,0,2.4-0.8,2.4-1.8
						c0-1.4-0.9-2.1-2.5-2.1c-1.2,0-2.2-0.7-2.2-2c0-1.3,0.9-2,2.1-2c1.1,0,1.9-0.7,1.9-1.9c0-0.9-0.6-1.5-1.7-1.5
						c-0.7,0-1.3,0.2-1.9,0.5c-1,0.6-2.1,0.4-2.7-0.6c-0.4-0.6-0.6-1.8,0.6-2.7c1.1-0.9,2.6-1.2,4.4-1.2c1.6,0,3.1,0.4,4,1.2
						c1.1,0.9,1.5,2,1.5,3.5C727.2,515.8,726.3,517.3,724.5,518.1z"/>
				</g>
			</g>
		</g>
		<g>
			<path class="st7" d="M574.9,568.8H423.4c-3.8,0-6.9-3.1-6.9-6.9V461c0-3.8,3.1-6.9,6.9-6.9h151.5c3.8,0,6.9,3.1,6.9,6.9v100.8
				C581.8,565.7,578.8,568.8,574.9,568.8z"/>
			<path class="st5" d="M549.9,492.9H433c-4.1,0-7.5-3.3-7.5-7.5V483c0-4.1,3.3-7.5,7.5-7.5h116.9c4.1,0,7.5,3.3,7.5,7.5v2.4
				C557.2,489.5,554,492.9,549.9,492.9z"/>
			<path class="st5" d="M502.1,515.6h-73.7c-1.6,0-2.9-1.3-2.9-2.9v-2.9c0-1.6,1.3-2.9,2.9-2.9h73.7c1.6,0,2.9,1.3,2.9,2.9v2.9
				C505,514.3,503.8,515.6,502.1,515.6z"/>
			<path class="st5" d="M479.9,550.5H428c-1.3,0-2.5-1.1-2.5-2.5v-3.7c0-1.3,1.1-2.5,2.5-2.5h51.9c1.3,0,2.5,1.1,2.5,2.5v3.7
				C482.2,549.4,481.2,550.5,479.9,550.5z"/>
			<path class="st5" d="M518.6,531.9h-89.8c-1.7,0-3.2-1.4-3.2-3.2v-2.3c0-1.7,1.4-3.2,3.2-3.2h89.8c1.7,0,3.2,1.4,3.2,3.2v2.3
				C521.8,530.5,520.3,531.9,518.6,531.9z"/>
		</g>
		<g>
			<g>
				<path class="st5" d="M579.2,606.9c-1.2,0-2.5-0.1-3.8-0.2c-19.9-2-34.5-19.9-32.4-39.9c0.4-3.4,3.4-6,6.9-5.6
					c3.4,0.4,6,3.4,5.6,6.9c-1.3,13,8.1,24.7,21.1,26c6.3,0.7,12.4-1.2,17.4-5.2c4.9-4,7.9-9.7,8.6-16c1.3-13-8.1-24.7-21.1-26
					c-4.7-0.5-9.4,0.4-13.5,2.6c-3.1,1.6-6.9,0.5-8.5-2.6c-1.6-3.1-0.5-6.9,2.6-8.5c6.4-3.3,13.6-4.8,20.8-4
					c19.9,2,34.5,19.9,32.4,39.9c-1,9.7-5.6,18.4-13.2,24.5C595.6,604,587.6,606.9,579.2,606.9z"/>
			</g>
			<path class="st5" d="M590.6,570.6c0,6.3-5.2,11.5-11.5,11.5s-11.5-5.2-11.5-11.5c0-6.3,5.2-11.5,11.5-11.5
				S590.6,564.2,590.6,570.6z"/>
		</g>
		<g>
			<path class="st5" d="M835.1,721.4H731.2c-4.2,0-7.6-3.3-7.6-7.6v-76.6c0-4.2,3.3-7.6,7.6-7.6h103.9c4.2,0,7.6,3.3,7.6,7.6v76.6
				C842.6,718.1,839.3,721.4,835.1,721.4z"/>
			<path class="st8" d="M793.9,738.1h-101c-4,0-7.4-3.3-7.4-7.4v-74.5c0-4,3.3-7.4,7.4-7.4h101c4,0,7.4,3.3,7.4,7.4v74.5
				C801.3,734.7,798,738.1,793.9,738.1z"/>
			<path class="st9" d="M698.7,666.9L675.9,644h-59.7c-0.9,0-1.5-0.7-1.5-1.5c0-0.9,0.7-1.5,1.5-1.5h60.9l23.7,23.7
				c0.6,0.6,0.6,1.5,0,2.1C700.3,667.6,699.3,667.6,698.7,666.9z"/>
			<path class="st9" d="M654.8,636.6h-39c-0.9,0-1.5-0.7-1.5-1.5c0-0.9,0.7-1.5,1.5-1.5h39c0.9,0,1.5,0.7,1.5,1.5
				C656.4,635.9,655.7,636.6,654.8,636.6z"/>
			<path class="st9" d="M682.6,759l23.6-0.6l20.3-21.3c0.6-0.6,0.6-1.5-0.1-2.1c-0.3-0.3-0.7-0.4-1.1-0.4c-0.4,0-0.8,0.2-1.1,0.5
				l-19.4,20.5l-22.4,0.6c-0.9,0-1.5,0.7-1.4,1.5C681,758.4,681.7,759,682.6,759z"/>
			<g>
				<path class="st10" d="M696.8,694.5c0,8.4,2.7,16.3,7.2,22.7h0.1C699.5,710.7,696.8,703,696.8,694.5z"/>
				<path class="st10" d="M742.1,655.5c1.1,0.2,2.2,0.4,3.3,0.6C744.3,655.8,743.2,655.6,742.1,655.5z"/>
				<path class="st10" d="M723.7,731.9c-0.2-0.1-0.5-0.1-0.7-0.2c1.1,0.4,2.1,0.7,3.3,1c-0.2,0-0.3-0.1-0.5-0.1
					C725,732.4,724.4,732.1,723.7,731.9z"/>
				<path class="st10" d="M720.2,730.5c-0.5-0.2-1.1-0.5-1.5-0.7c1.1,0.6,2.3,1.1,3.4,1.5c-0.2-0.1-0.4-0.2-0.5-0.2
					C721,730.9,720.5,730.7,720.2,730.5z"/>
				<path class="st10" d="M751,657.8c1.2,0.5,2.6,1.1,3.8,1.7C753.5,659,752.2,658.4,751,657.8z"/>
				<path class="st11" d="M763.9,694.5h12.1c0-15.1-8.5-28.2-21-34.9l-5.6,10.6C757.9,674.9,763.9,684,763.9,694.5z"/>
				<path class="st10" d="M736.4,655c-21.8,0-39.5,17.7-39.5,39.5C696.8,672.8,714.7,655,736.4,655z"/>
				<path class="st10" d="M746.7,656.4c1.1,0.3,2.2,0.7,3.3,1.1C748.9,657,747.7,656.8,746.7,656.4z"/>
				<path class="st10" d="M736.4,655c1.5,0,3.1,0.1,4.5,0.3C739.4,655.1,738,655,736.4,655z"/>
				<path class="st10" d="M718,729.6c-1.3-0.7-2.6-1.4-3.8-2.3C715.4,728,716.6,728.8,718,729.6z"/>
				<path class="st10" d="M713.8,727.1c-1.1-0.8-2.1-1.6-3.2-2.5C711.7,725.4,712.8,726.3,713.8,727.1z"/>
				<path class="st10" d="M736.4,734c21.8,0,39.5-17.7,39.5-39.5C775.9,716.3,758,734,736.4,734z"/>
				<path class="st10" d="M731.8,733.9c1.4,0.2,3,0.3,4.5,0.3C734.9,734,733.4,734,731.8,733.9C731.9,733.9,731.9,733.9,731.8,733.9
					z"/>
				<path class="st10" d="M727.6,733.1c-0.1,0-0.2,0-0.3,0c1.1,0.3,2.2,0.5,3.3,0.6c-0.1,0-0.2,0-0.3-0.1
					C729.5,733.5,728.6,733.3,727.6,733.1z"/>
				<path class="st10" d="M706.6,720.5c-0.8-0.9-1.4-1.7-2.1-2.6C705.1,718.7,705.8,719.6,706.6,720.5z"/>
				<path class="st10" d="M709.7,723.7c-0.8-0.7-1.4-1.4-2.2-2.1C708.2,722.3,709,723,709.7,723.7z"/>
				<path class="st12" d="M749.9,657.4c0.4,0.1,0.7,0.3,1.1,0.4C750.6,657.7,750.2,657.6,749.9,657.4z"/>
				<path class="st12" d="M745.4,656.1c0.4,0.1,0.9,0.2,1.2,0.3C746.2,656.3,745.8,656.2,745.4,656.1z"/>
				<path class="st12" d="M755,659.6c-0.1,0-0.2-0.1-0.2-0.1C754.8,659.6,754.9,659.6,755,659.6L755,659.6z"/>
				<path class="st12" d="M740.9,655.3c0.4,0,0.8,0.1,1.1,0.2C741.7,655.4,741.3,655.3,740.9,655.3z"/>
				<path class="st12" d="M723.7,731.9c0.7,0.3,1.4,0.5,2.1,0.7C725,732.4,724.4,732.1,723.7,731.9z"/>
				<path class="st12" d="M736.4,734c-1.5,0-3-0.1-4.4-0.3C733.4,734,734.9,734,736.4,734z"/>
				<path class="st13" d="M713.8,710.3c-16.5-23.2,10.3-53.6,35.4-40l5.6-10.6c-36.1-19.4-74.7,24.2-50.9,57.5L713.8,710.3z"/>
				<path class="st12" d="M720.2,730.5c0.5,0.2,0.9,0.4,1.3,0.6C721,730.9,720.5,730.7,720.2,730.5z"/>
				<path class="st12" d="M727.6,733.1c1,0.2,1.8,0.4,2.8,0.5C729.5,733.5,728.6,733.3,727.6,733.1z"/>
				<path class="st14" d="M707.5,721.5c-0.3-0.4-0.7-0.7-1-1.1C706.9,720.8,707.2,721.1,707.5,721.5z"/>
				<path class="st14" d="M710.7,724.6c-0.4-0.3-0.7-0.6-1-0.9C710,724,710.4,724.3,710.7,724.6z"/>
				<path class="st14" d="M714.1,727.3c-0.1-0.1-0.2-0.1-0.2-0.2C713.9,727.1,714,727.2,714.1,727.3z"/>
				<path class="st14" d="M731.8,733.9c-0.4,0-0.8-0.1-1.1-0.2C731.1,733.7,731.4,733.8,731.8,733.9z"/>
				<path class="st14" d="M718.5,729.8c-0.2-0.1-0.4-0.2-0.6-0.3C718.2,729.6,718.3,729.7,718.5,729.8z"/>
				<path class="st14" d="M727.4,733c-0.4-0.1-0.8-0.2-1.1-0.3C726.7,732.8,727,732.9,727.4,733z"/>
				<path class="st14" d="M723,731.8c-0.4-0.1-0.7-0.3-1.1-0.4C722.4,731.5,722.6,731.6,723,731.8z"/>
				<path class="st14" d="M704,717.2c0.2,0.2,0.4,0.4,0.5,0.7C704.3,717.6,704.2,717.4,704,717.2L704,717.2z"/>
				<path class="st14" d="M704.1,717.1L704.1,717.1c0.1,0.3,0.3,0.5,0.4,0.7c0.7,0.9,1.3,1.8,2.1,2.6c0.3,0.4,0.7,0.8,1,1.1
					c0.7,0.8,1.4,1.4,2.2,2.1c0.3,0.3,0.7,0.6,1,0.9c1.1,0.9,2.1,1.7,3.2,2.5c0.1,0.1,0.2,0.1,0.2,0.2c1.2,0.9,2.6,1.6,3.8,2.3
					c0.2,0.1,0.4,0.2,0.6,0.3c0.5,0.3,1.1,0.5,1.5,0.7C713.7,727.5,708.1,723,704.1,717.1z"/>
				<path class="st14" d="M730.5,733.6c0.1,0,0.2,0,0.3,0.1c0.4,0.1,0.8,0.1,1.1,0.2c0,0,0,0,0.1,0
					C731.4,733.8,731,733.7,730.5,733.6z"/>
				<path class="st14" d="M721.5,731.1c0.2,0.1,0.4,0.2,0.5,0.2c0.4,0.1,0.7,0.3,1.1,0.4c0.2,0.1,0.5,0.1,0.7,0.2
					C722.9,731.7,722.2,731.5,721.5,731.1z"/>
				<path class="st14" d="M725.8,732.6c0.2,0,0.3,0.1,0.5,0.1c0.4,0.1,0.8,0.2,1.1,0.3c0.1,0,0.2,0,0.3,0
					C727,732.9,726.4,732.8,725.8,732.6z"/>
				<path class="st15" d="M775.9,694.5h-12.1c0.6,26.5-35.6,37.5-50,15.7l-9.9,6.9C725.6,748.6,776.1,732.7,775.9,694.5z"/>
			</g>
		</g>
		<path class="st5" d="M1152.3,447.1v67.2H955.8c-7.4,0-13.4-6-13.4-13.4v-79.5h184.2C1140.7,421.4,1152.3,433,1152.3,447.1z"/>
		<g>
			<path class="st16" d="M1200.5,385.6v107.2c0,7.4-6,13.4-13.4,13.4H962.9c-7.4,0-13.4-6-13.4-13.4V385.6c0-7.4,6-13.4,13.4-13.4
				h224.2C1194.5,372.2,1200.5,378.2,1200.5,385.6z"/>
			<path class="st5" d="M1200.5,385.6v19.8H949.4v-19.8c0-7.4,6-13.4,13.4-13.4H1187C1194.5,372.2,1200.5,378.2,1200.5,385.6z"/>
			<circle class="st17" cx="972.7" cy="389.8" r="10.7"/>
			<path class="st18" d="M1013.9,389.8c0,5.9-4.8,10.7-10.7,10.7c-5.9,0-10.7-4.8-10.7-10.7s4.8-10.7,10.7-10.7
				C1009.2,379,1013.9,383.9,1013.9,389.8z"/>
			<path class="st18" d="M1044.5,389.8c0,5.9-4.8,10.7-10.7,10.7c-5.9,0-10.7-4.8-10.7-10.7s4.8-10.7,10.7-10.7
				C1039.7,379,1044.5,383.9,1044.5,389.8z"/>
		</g>
		<g>
			<g>
				
					<rect x="415.3" y="611.1" transform="matrix(0.6698 -0.7425 0.7425 0.6698 -306.7493 534.7855)" class="st19" width="65.2" height="2.4"/>
				
					<rect x="427.2" y="619.4" transform="matrix(0.67 -0.7424 0.7424 0.67 -309.2368 545.5132)" class="st19" width="63.5" height="2.4"/>
				
					<rect x="442.7" y="629.5" transform="matrix(0.6698 -0.7425 0.7425 0.6698 -313.6993 556.024)" class="st19" width="51.3" height="2.4"/>
				
					<rect x="463.8" y="638.4" transform="matrix(0.67 -0.7424 0.7424 0.67 -316.8065 566.503)" class="st19" width="29.8" height="2.4"/>
				
					<rect x="481.1" y="657.1" transform="matrix(0.6698 -0.7425 0.7425 0.6698 -324.0822 587.83)" class="st19" width="35.7" height="2.4"/>
				
					<rect x="480.7" y="666.3" transform="matrix(0.6698 -0.7425 0.7425 0.6698 -327.5429 598.4233)" class="st19" width="56.8" height="2.4"/>
				
					<rect x="486.6" y="675.5" transform="matrix(0.6698 -0.7425 0.7425 0.6698 -331.0437 608.9812)" class="st19" width="65.2" height="2.4"/>
				
					<rect x="496.9" y="684.7" transform="matrix(0.6698 -0.7425 0.7425 0.6698 -334.4904 619.6595)" class="st19" width="65.2" height="2.4"/>
				
					<rect x="509" y="693.9" transform="matrix(0.6698 -0.7425 0.7425 0.6698 -337.9209 630.27)" class="st19" width="61.4" height="2.4"/>
				
					<rect x="527.6" y="703.1" transform="matrix(0.6698 -0.7425 0.7425 0.6698 -341.4178 640.8635)" class="st19" width="44.6" height="2.4"/>
				
					<rect x="552.4" y="711.9" transform="matrix(0.67 -0.7424 0.7424 0.67 -344.4716 651.3334)" class="st19" width="15.9" height="2.4"/>
				
					<rect x="560.5" y="721.1" transform="matrix(0.67 -0.7424 0.7424 0.67 -347.9484 661.9346)" class="st19" width="20" height="2.4"/>
				
					<rect x="557.9" y="731" transform="matrix(0.6698 -0.7425 0.7425 0.6698 -352.1511 672.506)" class="st19" width="44.5" height="2.4"/>
				
					<rect x="560.7" y="739.8" transform="matrix(0.6698 -0.7425 0.7425 0.6698 -355.2254 683.2371)" class="st19" width="59.8" height="2.4"/>
				
					<rect x="568.2" y="749" transform="matrix(0.6698 -0.7425 0.7425 0.6698 -358.6857 693.8301)" class="st19" width="65.2" height="2.4"/>
			</g>
			<g>
				<path class="st19" d="M480.9,645.3c-41.7,8.3-56.3-16.6-57-17.6c-0.7-1.9-2.8-2.9-4.7-2.2c-1.9,0.7-2.9,2.8-2.2,4.7
					c0.1,0.4,0.3,0.8,0.6,1.1c0.7,1.2,17.5,30.7,64.6,21.2c33.2-6.6,47-6.3,62.9,8.1l1.4,1.3c15.9,14.4,17.3,28.2,13.9,61.8
					c-5.1,47.7,25.7,61.8,27.1,62.4c1.4,0.6,3.1,0.3,4.1-0.9c0.3-0.3,0.5-0.7,0.7-1.1c0.8-1.8,0-3.8-1.8-4.7
					c-0.2-0.2-27.4-12.5-22.8-55.2c3.5-33,3.1-50.4-16.1-67.8l-1.4-1.3C531,637.5,513.5,638.8,480.9,645.3z"/>
				<path class="st19" d="M491.9,641.8c5.1-47.7-25.7-61.8-27.1-62.4c-1.6-1.1-3.9-0.8-5.1,0.9c-1.1,1.6-0.8,3.9,0.9,5.1
					c0.4,0.3,0.9,0.5,1.3,0.6c1.1,0.6,27.3,12.8,22.8,55.2c-3.4,33-3.1,50.5,16.1,67.9l1.4,1.3c19.1,17.4,36.5,16.3,69.1,9.8
					c41.7-8.3,56.3,16.6,57,17.6c1,1.7,3.2,2.3,4.9,1.3c0.4-0.2,0.7-0.4,1-0.7c1.1-1.1,1.2-2.8,0.5-4.1
					c-0.7-1.2-17.5-30.7-64.6-21.2c-33.3,6.6-47,6.3-62.9-8.1l-1.4-1.3C489.8,689.2,488.3,675.6,491.9,641.8z"/>
			</g>
		</g>
	</g>
	<g>
		<polygon class="st20" points="1995.7,498.2 2087.7,503.2 2034.3,572.1 		"/>
		<path class="st21" d="M1575.9,1156.4c21.3-32,42.6-122.6-30.1-274.5l308.8,89.5L1575.9,1156.4z"/>
		<g>
			<path class="st22" d="M1953.9,641.6c-17-39.9-36.9-78.6-59.3-115.8c-5.4-8.8-11-17.8-19.3-24c-10.4-7.8-23.7-10.3-36.7-10.4
				c-15-0.1-30.1,2.8-44,8.5c-3.6,1.4-7.4,3.6-8.2,7.4c-0.6,3.1,1.3,6,3.9,7.8c2.6,1.7,5.7,2.3,8.7,2.7c9.3,1.2,18.8,1.3,27.8,3.9
				c9,2.6,17.9,8.2,21.2,17c-8-2.6-16.5-3.2-24.9-3.2c-1.7,0-3.6,0.1-5.1,0.9s-2.8,2.4-2.6,4.1c0.3,1.9,2.1,3.2,3.8,4.1
				c14.7,8,30.3,14.4,46.4,18.9c7.7,8.4,11.7,20.8,14.5,31.9c2.9,11,4.4,22.4,7.4,33.3c3,10.9,7.7,21.8,15.7,29.9s20,12.9,31,10.2
				C1945.8,666,1958.3,652.1,1953.9,641.6z"/>
			<path class="st23" d="M1953.9,641.6c-6.9-16.2-14.5-32.3-22.3-48.1c-8,5.3-16.9,8.8-26.4,10.4c-7.5,1.2-15,1.2-22.5,0.7
				c1.7,8.1,3.1,16.1,5.3,24.1c3,10.9,7.7,21.8,15.7,29.9c8.1,8.1,20,12.9,31,10.2C1945.8,666,1958.3,652.1,1953.9,641.6z"/>
			<g>
				<polygon class="st22" points="1262.4,986 1233.4,1031.4 1286.2,1034.3 1307.6,998.5 				"/>
				<path class="st24" d="M1810.3,839.5c-76.6-46.4-160.5-85.4-248.7-115.4c-33.4-11.4-70.3-21.7-103.9-15.1
					c-34.1,6.8-56.9,29.6-76,51.9c-62.5,73.1-109.6,154.5-139,240.5c18.5,6.9,43.5,14.3,63.5,14.8
					c57.7-71.5,103.7-115.1,144.5-179.5c105.5,9.2,212.4,15.7,317.9,24.9c11.9,1.1,24.4,2,34.7-1.9
					C1813.6,855.9,1820,845.4,1810.3,839.5z"/>
				<g>
					<path class="st25" d="M1190.5,1035c-11.1,2.5-22.9,5.5-30.6,13.3c-4.9,4.9-7.7,12.3-4.7,18.4c2.3,4.7,7.6,7.7,13.1,8.8
						c5.5,1.2,11,0.8,16.6,0.4c25.1-1.5,50.2-1.6,75.3,0c8.4,0.5,16.8,1.2,25-0.8c8.1-1.9,15.8-7,18.1-14.5c1.6-5.4,0.4-11-1-16.5
						c-1.3-5.5-3-11.5-8-14.8c-3.6-2.2-8-2.6-12.2-2.9c-8.1-0.5-16-1.1-24.1-1.5c-6.3-0.4-13.8-2.1-20-0.9
						C1222,1027.3,1206.3,1031.5,1190.5,1035z"/>
					<g>
						<path class="st25" d="M1303.6,1057.9c-49.5,5.9-99.8,6.9-149.7,3.4c0,1.8,0.3,3.7,1.2,5.5c2.3,4.7,7.6,7.7,13.1,8.8
							s11,0.8,16.6,0.4c25.1-1.6,50.2-1.6,75.3,0c8.4,0.5,16.8,1.2,25-0.8c8.1-1.9,15.8-7,18.1-14.5
							C1303.4,1059.8,1303.5,1058.9,1303.6,1057.9z"/>
						<path class="st25" d="M1186.7,1036c-9.9,2.4-20,5.5-26.9,12.4c-4.7,4.8-7.5,11.9-4.9,18c12.8,1.1,25.5,2.1,38.2,3.1
							c3.2-8.4,2.7-18-1.3-26C1190.4,1040.7,1188.7,1038.2,1186.7,1036z"/>
					</g>
				</g>
			</g>
			<polygon class="st22" points="1106.2,916.4 1165.4,891 1164.9,939.6 1100.2,963.5 			"/>
			<path class="st26" d="M1485.3,780.5c-37.8,2.2-211.3,44-348.6,107.9c-1.7,19.5,3.3,39.8,21.8,54.5
				c142.6-47.5,252.8-22.7,327.9-68.5c182.2,46.8,223.2,145.6,411,138.6c14.5-0.6,27.8-8.4,39.3-17.5c11.5-9,20.5-22.8,21.9-39.1
				c1.3-15.4-4.1-31.3-12.5-44.6c-8.3-13.3-19.2-24.2-30.2-34.7c-19.5-18.6-39.9-36.6-62.9-48.6
				C1830.1,816.6,1508.1,779.1,1485.3,780.5z"/>
			<path class="st27" d="M1945.6,912c-8.8-13.1-20.9-23.6-33-33.7c-21.6-18-44.2-35.1-70-46.3c-7.5-3.2-43.7-7.3-92-11.5
				c-13.7,22.4-10.5,61.6-7.2,82.2c4.1,26,14.6,50.7,29.2,72.7c25.2,38.1,87.2,43.7,112,41.8c16.7-1.2,32.5-10,46.1-19.7
				c13.7-9.7,24.8-24.2,27.2-40.8C1960,941,1954.6,925.1,1945.6,912z"/>
			<path class="st22" d="M2091,381.4c0.2,45.7,37.2,102.3,54.7,144.4c-30,12.3-62.2,13.1-92,0.3c-3.5-15.8-0.6-73.6-8.7-87.7
				c15.4-17.3-20.1-28.9-4.7-46.2C2051.2,379.9,2080.1,393.7,2091,381.4z"/>
			<path class="st28" d="M1797.2,809.9c-20-0.1-41.5-1.2-42.7,18.7c-1.1,16.6,100.2,254.9,229.1,142.1
				c80.2-70.2,213.5-240.8,166-456.7c-2.8-12.8-22-24.6-29-23.3c-139.4,25.9-171.6,151.1-182.1,180.5
				C1892.4,800.3,1902.5,810.4,1797.2,809.9z"/>
			<path class="st29" d="M1939.9,673.7c-17.8,41.3-20,50.9-25.3,72.2c51,0,73.5-0.8,118.2-24.6c21.1-11.2,40.3-26,56.5-43.7
				c13.7-15.1,67-83.9,19.6-87.6c-20.5-1.5-39.8,17-55.5,27.8c-20.4,13.9-40.9,28.1-63.6,38.1
				C1973.7,663.1,1956.6,668.1,1939.9,673.7z"/>
			<g>
				<path class="st25" d="M1096.6,848.2c-5.8-10.9-12-22.4-22.8-28.4c-6.7-3.7-15.7-4.7-21.9,0c-4.7,3.6-6.7,10-6.6,15.9
					c0.1,6,2,11.7,3.8,17.5c8.3,25.7,14.7,51.9,19.4,78.5c1.5,8.8,3,17.9,7.2,25.8c4.2,7.9,11.9,14.6,20.9,15.1
					c6.4,0.3,12.5-2.6,18.2-5.4c5.9-2.9,12.2-6.2,14.5-12.3c1.6-4.3,0.9-9,0-13.5c-1.5-8.5-3-17-4.5-25.5c-1.2-6.7-1.2-15-4.1-21.1
					C1113.4,879,1104.7,863.6,1096.6,848.2z"/>
				<g>
					<path class="st25" d="M1100.2,972.4c-19.3-50.2-33.4-102.3-42.2-155.3c-2.1,0.5-4.1,1.3-5.9,2.7c-4.7,3.6-6.7,10-6.6,15.9
						c0.1,6,2,11.7,3.8,17.5c8.3,25.7,14.7,51.9,19.4,78.5c1.5,8.8,3,17.9,7.2,25.8c4.2,7.9,11.9,14.6,20.9,15.1
						C1097.9,972.7,1099,972.5,1100.2,972.4z"/>
					<path class="st25" d="M1094.6,844.4c-5.2-9.7-11.2-19.4-20.7-24.7c-6.5-3.6-15.3-4.6-21.3-0.3c2.1,13.5,4.2,27.2,6.3,40.7
						c10.2,1.1,20.8-2,28.8-8.4C1090.4,849.6,1092.7,847.2,1094.6,844.4z"/>
				</g>
			</g>
			<g>
				<path class="st22" d="M2051.2,528.1c-17.9,13.3-30.9,32.3-45,49.8c-14,17.7-74.7,70.7-92.9,60c-92.9-54.3-136.6-53-183.9-95.6
					c-11,9.4-19.6,13.7-24.6,30.2c38.4,34,178.3,154,227.6,144.7c38.2-7.2,110.3-55.9,139.6-82.8c11-10.2,21.5-21.4,28.9-34.8
					c7.4-13.4,11.5-29.2,9.3-44.6c-2.2-15.4-11.4-29.9-25.1-35.7C2071.7,513.6,2063.2,519.2,2051.2,528.1z"/>
				<path class="st22" d="M1718.3,499.6c-8.6-6-18.9-8.7-29.2-10.4c-12.8-2.1-26.3-2.4-38.3,2.8c-3.5,1.5-7.1,3.9-8.1,7.8
					c-0.8,3.2,0.6,6.6,2.7,9c2.1,2.4,5,3.9,7.8,5.4c8.1,4.2,21.3,13,29.8,16.2c1.3,40.9,26.2,46.6,33.7,48.4
					c8.3,2.1,17.2-1.8,22.8-8.4C1745.1,564,1732.9,509.7,1718.3,499.6z"/>
			</g>
			<path class="st23" d="M2051.5,508.2c5.8-1.8,10.4-6.9,13.4-12.2c5.9-10,8.4-21.7,7.3-33.2c-0.2-2.4-0.7-4.9-2-6.9
				c-1.3-2-3.7-3.6-6.1-3.1c-5.9,1.1-11,12.2-14.9,19.2C2050.6,482.5,2051.1,495.8,2051.5,508.2z"/>
			<path class="st22" d="M1966.7,389c2.1,21.7,8.4,42.8,15.5,63.5c3.5,10,7.5,20.5,15.6,27.2c10.1,8.4,24.9,9.5,37.4,5.3
				s22.9-13.1,31.8-22.7c15.9-17.3,28.3-38.3,33.3-61.4c5-23,2.1-48.1-10.1-68.3c-12.2-20.2-34.1-34.8-57.6-35.8
				c-22.1-1.1-43.3,10.8-55.9,28.7C1964.9,342.4,1964.8,369.4,1966.7,389z"/>
			<path class="st25" d="M1939.5,351.8c18.1,8,33.7,25.7,98.9-5c1.2,16.9-4.1,79.2,70.3,83.7c7.9-22.7,15.2-61.5,14.8-75.7
				c-0.4-14.5-3.7-29.5-12.6-40.9c-8.8-11.5-19.9-19.7-33.9-16c-5.1-10.4-15.1-18-26.1-21.4c-11-3.5-23.5-2.2-33.6,3.5
				c-7.7,4.2-13.5,10.9-21.2,15.3C1989,299,1932.3,348.6,1939.5,351.8z"/>
			<path class="st25" d="M1928.7,272.2c-15.9,3.6-27.8,19-29,35.2c-1.2,16.2,7,32.5,19.6,42.7c12.6,10.3,29.1,15.2,45.4,15.7
				c16.3,0.6,32.5-3,48-7.9c16-5.1,32.6-12.5,41.1-27c6.3-10.8,7.1-24.7,1.9-36c-3.9-8.6-12.7-19.2-22.9-19.4
				c-9.4-0.2-18.8,6-27.8,8.1c-12.7,2.8-24.8-0.8-36.8-4.9C1955.5,274.6,1942.2,269.2,1928.7,272.2z"/>
			<path class="st22" d="M2073.9,392.1c0,11.7-8.4,21.2-18.8,21.2c-10.5,0-18.8-9.5-18.8-21.2s8.4-21.2,18.8-21.2
				C2065.5,370.9,2073.9,380.4,2073.9,392.1z"/>
			<g>
				<polygon class="st25" points="1990.6,400.1 1989.7,398.6 2046.6,370.1 2047.4,371.6 				"/>
			</g>
			<path class="st30" d="M1994.6,403.1c3.3,14.7-1,28.1-9.6,30.1c-8.5,1.9-18.2-8.4-21.5-23s1-28.1,9.6-30.1
				C1981.6,378.2,1991.3,388.4,1994.6,403.1z"/>
			<path class="st25" d="M2175.7,479.4c12.2,11.7,33.4,12.6,49.6,3.9c16.2-8.7,27.1-25.7,30-42.9c2.9-17.2-1.5-34.5-10-49
				c-8.4-14.5-20.7-26.5-34-37.1c-13.6-10.9-29.9-20.8-48.4-19.4c-13.8,1.1-27.4,8.7-35.4,20.2c-6,8.6-11.3,22.6-5.8,31.7
				c5,8.3,16.1,12.7,23,19.4c9.6,9.4,12.9,22.1,15.6,35C2163.1,454.6,2165.4,469.5,2175.7,479.4z"/>
			<polygon class="st20" points="1865.6,594.3 1942.1,586.2 1957,655.6 1925.7,671.2 1883,663.8 			"/>
		</g>
		<path class="st4" d="M2151.5,494.3c80.9,204-111.8,688.8-513.5,710.1c-136.3,7.2-116.3-126.4-116.3-126.4
			c480.8-102.8,518.2-591.4,518.2-591.4L2151.5,494.3z"/>
		<polygon class="st21" points="1970.6,725.4 2087.7,676.6 2005.9,761.9 1922.5,809.9 		"/>
		<path class="st4" d="M1773.2,550.1l-56.4,67.2c0,0,133.3,128.2,182.8,128.4c49.5,0.2,189.6-68.1,189.6-68.1s36.6-200.7-12.1-166.3
			c-52.4,37.1-138.7,133.3-148.6,120.2C1875.8,618.7,1824.3,588.5,1773.2,550.1z"/>
		<polygon class="st21" points="1914.5,860.7 1927.9,948.4 1914.5,955.2 1899.6,867.7 		"/>
	</g>
	<g>
		<path class="st31" d="M1210,711l11.2,21.7c1.3,2.3,3.6,3.8,6.3,3.8h86.9c3.9,0,7-3.1,7-7V549.3c0-3.9-3.1-7-7-7h-254.3
			c-3.9,0-7,3.1-7,7v150.8c0,3.9,3.1,7,7,7h143.6C1206.4,707.1,1208.7,708.6,1210,711z"/>
		<g>
			<polygon class="st32" points="1285,417.4 1079.8,417.4 1079.8,714.6 1303.1,714.6 1303.1,435.5 			"/>
			<g>
				<g>
					<polygon class="st4" points="1276.7,407.7 1071.4,407.7 1071.4,704.8 1294.7,704.8 1294.7,425.6 					"/>
					<polygon class="st33" points="1276.7,425.6 1294.7,425.6 1276.7,407.7 					"/>
				</g>
				<rect x="1103.6" y="525.8" class="st34" width="110.3" height="7.4"/>
				<rect x="1103.6" y="436.7" class="st35" width="159" height="15.7"/>
				<rect x="1181" y="463.6" class="st36" width="81.5" height="2.3"/>
				<rect x="1181" y="474.2" class="st36" width="81.5" height="2.3"/>
				<rect x="1181" y="484.7" class="st36" width="81.5" height="2.3"/>
				<rect x="1206.7" y="495.4" class="st36" width="55.8" height="2.3"/>
				<rect x="1103.6" y="546.1" class="st37" width="159" height="3.5"/>
				<rect x="1103.6" y="562.2" class="st37" width="159" height="3.5"/>
				<rect x="1103.6" y="578.4" class="st37" width="159" height="3.5"/>
				<rect x="1103.6" y="597" class="st37" width="63.2" height="3.5"/>
				<rect x="1103.6" y="597" class="st37" width="159" height="3.5"/>
				<rect x="1103.6" y="613.2" class="st37" width="159" height="3.5"/>
				<rect x="1103.6" y="631.9" class="st37" width="63.2" height="3.5"/>
				<g>
					<rect x="1103.6" y="463.6" class="st38" width="43.1" height="52.9"/>
					<g>
						<g>
							<g>
								<defs>
									<rect id="SVGID_1_" x="1092.9" y="435.1" width="53.8" height="81.4"/>
								</defs>
								<clipPath id="SVGID_00000129909417033261977010000001914560649569372591_">
									<use xlink:href="#SVGID_1_"  style="overflow:visible;"/>
								</clipPath>
								<g style="clip-path:url(#SVGID_00000129909417033261977010000001914560649569372591_);">
									<path class="st40" d="M1108.9,512.9v7.9h26.4l-1.4-9.3c-0.8-5.4-5.5-9.4-10.9-9.4h-3.3
										C1113.8,502.2,1108.9,507,1108.9,512.9z"/>
									<path class="st41" d="M1125.9,501.2c0,0,3,3.9,2.6,8.8l-5.4-2.9l-3.1,4.1c0,0-3.9-2-4.2-7.3
										C1115.4,498.5,1121.9,497.2,1125.9,501.2z"/>
									<circle class="st41" cx="1124.2" cy="510.7" r="0.8"/>
									<circle class="st41" cx="1124.9" cy="514.6" r="0.8"/>
									<circle class="st41" cx="1125.6" cy="518.5" r="0.8"/>
									<g>
										<path class="st40" d="M1110.5,485.2c0,6.9,5.6,12.5,12.5,12.5s12.5-5.6,12.5-12.5c0-4-1.8-7.5-4.8-9.8
											c-0.6-0.5-1.2-0.8-1.8-1.2c-1.8-0.9-3.8-1.5-6-1.5c-2.9,0-5.6,1-7.8,2.8c-2.9,2.3-4.6,5.6-4.7,9.6
											C1110.5,485.1,1110.5,485.2,1110.5,485.2z"/>
										<path class="st42" d="M1118.6,489.9c1.9,7,8.5,11.4,12.7,10.2c4.4-1.2,4.9-7.5,2.9-14.6c-1.9-7-6.5-9.6-10.7-8.5
											C1119.2,478.2,1116.7,482.8,1118.6,489.9z"/>
										<path class="st42" d="M1117.7,489.9l7.6-0.4c0.1,1,0.5,11.1-0.1,14.8c-0.3,1.1-2.3,1.6-4.4,1c-1.8-0.5-3.1-1.7-3.1-2.8
											l0,0C1118.2,500.3,1118,493.7,1117.7,489.9z"/>
										<path class="st40" d="M1111.5,484.1c1.9,2.9,5.1,4.7,8.9,4.7c6,0,10.7-4.8,10.7-10.7c0-0.9-0.1-1.8-0.3-2.7
											c-0.6-0.5-1.2-0.8-1.8-1.2c-1.8-0.9-3.8-1.5-6-1.5c-2.9,0-5.6,1-7.8,2.8C1113,477.7,1111.5,480.7,1111.5,484.1z"/>
										<circle class="st40" cx="1111.5" cy="472.8" r="10.1"/>
										<path class="st42" d="M1115.4,490.5c0.5,1.7,2.7,3.3,3.9,3c1.2-0.3,1.1-1.8,0.7-3.4c-0.5-1.7-1.8-2.9-3-2.6
											C1115.7,487.8,1115,488.9,1115.4,490.5z"/>
									</g>
								</g>
							</g>
						</g>
					</g>
				</g>
				<rect x="1180.6" y="677.7" class="st43" width="82" height="1.8"/>
			</g>
		</g>
		<path class="st44" d="M1314.3,606.3h-143.6c-2.6,0-5-1.5-6.3-3.8l-10.6-20.5l-0.6-1.1c-1.3-2.3-3.6-3.8-6.3-3.8h-86.8
			c-3.1,0-5.8,2.1-6.7,4.9h-0.3v2.1v145.4c0,3.9,3.1,7,7,7h254.2c3.9,0,7-3.1,7-7V613.3C1321.4,609.4,1318.2,606.3,1314.3,606.3z"/>
		<g>
			<path class="st45" d="M1197.2,631.6c-6-8.4-16-11.3-24.1-11.3c-19,0-35.7,22.8-35.7,22.8s-16.8-22.8-35.7-22.8
				c-12.2,0-29.1,6.9-29.3,29.2c-0.2,12.7,9.6,19.9,20.5,23.9c8.9,3.3,18.5,4.4,24.6,4.9c13.5,0.9,19.9,18.3,19.9,18.3
				s6.3-17.4,19.9-18.3c13.5-0.9,45.5-5.8,45.2-28.7C1202.4,641.8,1200.3,635.9,1197.2,631.6z"/>
			<polyline class="st46" points="1095.5,666 1102.7,666 1109.4,663.7 1114.7,667.7 1118.8,635.8 1123.6,675.9 1127.4,665.6 
				1132.8,663.7 1136.8,654.6 1140.9,663.7 1145,658.7 1149.5,666 1177.7,666 			"/>
		</g>
		<g>
			<rect x="1218.7" y="660.9" class="st4" width="84.4" height="3.7"/>
			<rect x="1218.7" y="674.7" class="st4" width="84.4" height="3.7"/>
			<rect x="1169.2" y="688.5" class="st4" width="134" height="3.7"/>
			<rect x="1169.2" y="702.4" class="st4" width="134" height="3.7"/>
		</g>
	</g>
	<path class="st25" d="M1670.9,653.2c2.4-4,1.4-9.1-2.3-11.9c-22.5-16.6-96.9-72-132.4-103.4c-3.8-3.4-5.3-8.7-3.7-13.6l45.4-157
		c1.7-5.5-0.3-11.4-5.1-14.6c-7-4.8-16.6-1.7-19.5,6.2c-16.4,45-45.5,101.2-56.7,184.9c-0.5,3.8,78,58.4,161.6,112.3
		C1662.4,658.8,1668.2,657.5,1670.9,653.2z"/>
	<g>
		<path class="st0" d="M417.4,987.3c35.6,0,65.6,23.9,74.9,56.4H342.5C351.8,1011.2,381.8,987.3,417.4,987.3z"/>
		<path class="st0" d="M505,1004.8c24.6,0,45.3,16.5,51.7,39H453.3C459.8,1021.3,480.4,1004.8,505,1004.8z"/>
		<path class="st0" d="M393.7,1043.8c-10.1-34.8-49.9-60.8-97.6-60.8s-87.5,26-97.6,60.8H393.7z"/>
	</g>
	<g>
		<path class="st1" d="M477.8,1032.2c15.8,0,29.2,10.6,33.3,25.1h-66.6C448.7,1042.8,462,1032.2,477.8,1032.2z"/>
		<path class="st1" d="M516.8,1039.9c10.9,0,20.1,7.3,23,17.3h-46C496.7,1047.3,505.9,1039.9,516.8,1039.9z"/>
		<path class="st1" d="M467.3,1057.3c-4.5-15.5-22.2-27-43.4-27c-21.2,0-38.9,11.6-43.4,27H467.3z"/>
	</g>
	<g>
		<g>
			<g>
				<path class="st47" d="M852.3,169.7c-12.1-7.4-21-16.2-26.8-25.5c-2.2,3.6-4,7.5-5.6,11.6c21.8,44,105.2,60.4,183.4,35.1
					c2.8-6.3,5.3-12.8,7.5-19.4C965.3,197.1,896.1,196.8,852.3,169.7z"/>
				<path class="st47" d="M814.5,129C814.5,129.1,814.5,129.1,814.5,129c-0.2,3.7,0,7.2,0.5,10.6c0.9-2.3,1.7-4.5,2.4-6.2
					c0.5-1.2,1.1-2.4,1.7-3.6c-0.8-3-1.4-6.1-1.6-9.1C816.2,123.3,815.2,126.1,814.5,129z"/>
				<path class="st47" d="M817.4,163.9c-0.6,2.5-1.1,5.1-1.5,7.8c-0.1,0.7-0.2,1.3-0.4,1.7c0.8,2.5,1.4,4.5,1.7,5.6
					c10.4,31.7,56.4,64.5,139.5,55.9c2-0.2,4.3-0.6,6.5,0.7c4.4,2.8,2.5,11.8-7.7,13.5c-78.1,13.6-140.4-29.5-145-84.8
					c-0.3-2-0.4-4.2-0.4-6.6c0-0.6,0.1-1.4,0.2-2.2c0-0.2,0-0.3,0-0.5c0,0.1,0,0.1,0,0.2c0.4-2.4,1.2-5.4,2.1-8.6
					c-0.2-1.2-0.3-2.5-0.4-3.7c0,0.2,0,0.4,0,0.6c0-0.2,0-0.4,0-0.6c0-0.1,0-0.2,0-0.3c-0.3-3.6,0.3-6.2,0.5-8.5
					c0.2-1.5,0.3-3.1,0.5-4.8c0.4-3,1-6.4,2-11.7l1-4.3c-0.5,2-0.8,3.9-1,5.9c0-0.1,0.1-0.3,0.1-0.4l0,0l1-4.3l0-0.1l0,0
					c0.1-0.5,0.3-1,0.4-1.5c0.4-1.3,0.8-2.5,1.3-3.7c0.9-5.2,2.6-10.4,5.1-15.4c0.9-1.6,1.8-3.2,2.7-4.7c2.3-3.6,5.2-7.7,7.4-10.9
					c0.8-1,1.6-2.1,2.6-3.2c1.5-1.8,2.8-3.3,4.3-4.9c21-21.9,57-12.3,74-6.8c-19.8-2.5-55-8.6-81.3,17.8c-1.8,3.5-3.2,7.1-4.1,10.8
					c11.8-10.6,46.9-28.9,113.5-14.5c-22.4-4.7-86,3-114.6,30.1c0.3,2.9,1,5.8,1.9,8.7c20-20.1,61.3-36.4,130.9-19.7
					c-38.1-7.7-89.1-3.2-119.2,27.9c-1.7,1.8-3.4,3.5-4.9,5.3c5.3,7.7,12.9,14.8,22.9,21c41.9,25.9,109.4,25,150.6-2.1
					c3.4-2.2,6.4-4.6,9.3-7c0.3-1.6,0.7-3.2,1-4.7c1.2-6.2,2.2-12.5,3-18.8c0.5-4.5,1-9,1.3-13.6c0.4-4.6,0.7-9.2,0.8-13.8
					c0.2-9.3,0.1-18.7-0.8-28c-0.4-4.6-0.9-9.2-1.3-13.9c0-0.2-0.1-0.5-0.2-0.8c-0.3,0-0.6-0.1-0.9-0.1c-3.6-0.1-7.3-0.2-10.9-0.2
					c-4.6-0.1-9.2-0.2-13.8-0.6c-4.5-0.4-9-0.9-13.5-1.6c-5.2-0.8-10.4-1.9-15.5-3.2c-13.8-3.6-27-8.8-39.4-16
					c-8.5-5-16.5-10.7-23.6-17.6c-2.6-2.5-5.3-5-8-7.5c-0.4-0.3-0.7-0.6-1.1-1c-0.4,0.3-0.7,0.6-1,0.8c-3.1,2.9-6.2,5.8-9.3,8.7
					c-3.9,3.6-8,7-12.3,10c-4.6,3.2-9.3,6.1-14.2,8.7L834.7,39c-2,0.7-4.1,1.3-6.2,1.9c-5.9,1.7-12,3.1-18.1,4.1
					c-2.9,0.5-5.7,0.9-8.6,1.3c-2.4,0.3-4.9,0.5-7.3,0.7c-2.7,0.2-5.5,0.4-8.2,0.5c-5.3,0.2-10.6,0.2-15.9,0.3
					c-0.3,0-0.7,0.1-1.1,0.1c-0.1,1.1-0.3,2-0.3,3c-0.3,3.7-0.7,7.4-1,11c-0.3,3.7-0.6,7.5-0.8,11.2c-0.4,12.9,0,25.9,1.4,38.8
					c0.5,5,1.2,10,1.9,15c1.1,6.9,2.5,13.8,4.1,20.6c4,17,9.7,33.4,17.2,49.3c10,21.3,23,40.7,39,58c12.5,13.5,26.5,25.3,41.7,35.7
					c7.5,5,15.2,9.6,23,14c0.2,0.1,0.4,0.2,0.7,0.3c0.2-0.1,0.5-0.2,0.7-0.3c2.3-1.3,4.5-2.6,6.8-3.9c14.9-8.5,28.8-18.4,41.6-29.8
					c12.6-11.2,23.9-23.7,33.8-37.4c4.6-6.5,8.9-13.1,12.8-19.9C927.5,229.2,840,215.2,817.4,163.9z M1010.9,61.7
					c0,0.3,0.1,0.7,0.1,1l-0.3-1.6C1010.8,61.4,1010.9,61.6,1010.9,61.7z M783.6,61h-0.4C783.4,61,783.5,61,783.6,61L783.6,61z"/>
			</g>
		</g>
		<path class="st4" d="M1010.7,99c6.2,4.2,8.9,9.9,7.2,17.4c-2,9-9.5,14-18.5,12.2c-8.5-1.6-14.3-9.4-12.5-17.8
			c0.8-3.9-0.3-5.5-3.3-7.3c-4.3-2.6-8.3-5.6-13-8.8c-4.1,6.3-9.9,6.6-16.7,4.2c-2.4,4.8-5,9.4-7.1,14.3c-0.4,0.9,0.5,2.6,1,3.8
			c1.8,4.2,1.4,8.2-1.3,11.9c-2.7,3.6-6.3,4.3-10.4,3.4c-5.7-1.1-8.9-5.6-8.3-11.3c0.6-6,5.1-10.4,11.1-9.6c3.3,0.4,4.3-0.9,5.3-3.3
			c0.8-1.9,1.9-3.8,2.9-5.6c1.8-3.5,3.3-6.6,1.2-11.1c-2.8-6.2,2.3-14.5,8.4-15.6c8.1-1.5,15.2,3.2,15.5,11.1
			c0.1,3.3,1.4,4.9,3.8,6.5c4.4,2.8,8.6,5.8,12.9,8.7c0.3,0.2,0.6,0.2,1.3,0.4c4-4.8,9.4-6.2,16-4.8c2.6-7.1,5.1-14,7.7-21.1
			c-8.7-4.8-13.2-11.5-10.6-21.6c2.4-9.5,10.4-14.8,20.1-13.3c9.7,1.5,15.8,8.7,15.5,18.6c-0.3,8.7-7.8,16.6-16.9,16.9
			c-3.1,0.1-4.3,1.1-5.1,3.8c-1.8,5.5-3.9,11-5.9,16.5C1011,97.8,1010.9,98.3,1010.7,99z"/>
		<g>
			<g>
				<path class="st47" d="M1812.1,57.8c1.5-0.6,2.5-1.8,2.5-3.6c0-2.5-1.8-4-4.5-4h-4.9V62h1.9v-3.9h2.8l2.8,3.9h2.1v-0.3
					L1812.1,57.8L1812.1,57.8z M1810.1,56.4h-2.9v-4.4h2.8c1.6,0,2.6,0.7,2.6,2.2C1812.6,55.6,1811.5,56.4,1810.1,56.4z"/>
				<path class="st47" d="M1810,44.4c-6.4,0-11.7,5.2-11.7,11.7s5.2,11.7,11.7,11.7s11.7-5.2,11.7-11.7S1816.5,44.4,1810,44.4z
					 M1810,65.7c-5.3,0-9.6-4.3-9.6-9.6s4.3-9.6,9.6-9.6s9.6,4.3,9.6,9.6S1815.3,65.7,1810,65.7z"/>
				<g>
					<path class="st47" d="M1101.5,170.5c-33.4,0-57.2-26.3-57.2-60.2c0-34.6,23.7-60.8,57.2-60.8c25.5,0,38,15.3,38,15.3l-4.8,6.4
						c0,0-11.8-13.5-33-13.5c-29,0-48.7,24.1-48.7,52.7c0,28,19.7,52.1,48.7,52.1c21.2,0,33-13.9,33-13.9l4.8,6.6
						C1139.5,155,1127,170.5,1101.5,170.5z"/>
					<path class="st47" d="M1244.4,51.9l-43.4,71.4v44.4h-8.5v-44.6l-43.3-71.2h10l34.2,57.3l3.1,6.4h0.6l3.5-6.4l34-57.3H1244.4z"
						/>
					<path class="st47" d="M1264.3,51.9l41.7,98.5l41.9-98.5h13.9l-49.6,115.9H1300l-49.6-115.9H1264.3z"/>
					<path class="st47" d="M1392.9,115.4v39.8h67.8v12.6h-81.3V51.9h81.3v12.6h-67.8v38.4h57.9v12.6H1392.9z"/>
					<path class="st47" d="M1574.4,90.5c0,18.7-10,31.1-25.5,36.1v0.8l28.4,37.3v3.1h-17.2l-29-38.4h-31.5v38.4h-15.8V51.9h46.3
						C1557.6,51.9,1574.4,66,1574.4,90.5z M1529.6,66.4h-29.9v48.7h31.3c15.8,0,27-7.7,27-24.1C1558,74.3,1546.8,66.4,1529.6,66.4z"
						/>
					<path class="st47" d="M1633.3,155.6c18.2,0,25.9-7.5,25.9-18.3c0-9.8-6-14.9-28.8-21.6c-26.1-7.9-38.2-16.4-38.2-34.4
						c0-19.3,15.3-31.9,41.7-31.9c27.8,0,39,11.6,39,11.6l-8.7,13.1c0,0-10.6-9.8-30.3-9.8c-14.7,0-24.7,6-24.7,16.8
						c0,8.7,6.8,13.1,28.4,19.5c28.8,8.3,38.8,18.5,38.8,36.1c0,19.1-14.3,33.8-42.7,33.8c-28.8,0-42.1-14.1-42.1-14.1l8.7-12
						C1600.3,144.4,1612.6,155.6,1633.3,155.6z"/>
					<path class="st47" d="M1716.5,117.2v33.6h63.3v17h-82.4V51.9h82.4v17h-63.3V101h53.9v16.2H1716.5z"/>
				</g>
			</g>
		</g>
		<g>
			<g>
				<path class="st47" d="M1428.3,285.6V254h-37.7v31.7h-12.3v-74.5h12.3v32.4h37.7v-32.4h12.3v74.5H1428.3z"/>
				<path class="st47" d="M1471.3,253.1v21.6h40.7v10.9h-53v-74.5h53V222h-40.7v20.6h34.6v10.4H1471.3z"/>
				<path class="st47" d="M1577.7,285.6l-6.1-15.3h-35.5l-6,15.3h-13l30.5-74.5h12.4l30.5,74.5H1577.7z M1567.5,259.9l-13.7-34.5
					l-13.7,34.5H1567.5z"/>
				<path class="st47" d="M1600.1,211.1h12.3v63.6h36.6v10.9h-48.9V211.1z"/>
				<path class="st47" d="M1701.8,211.1V222h-23.3v63.6h-12.3V222h-23.3v-10.9H1701.8z"/>
				<path class="st47" d="M1764,285.6V254h-37.7v31.7H1714v-74.5h12.3v32.4h37.7v-32.4h12.3v74.5H1764z"/>
			</g>
		</g>
	</g>
	<g>
		<g>
			<path class="st19" d="M822.1,1047.3c-1.2-0.8-3-1.2-5.4-1.2H812v11.3h4.7c4.8,0,7.2-2,7.2-5.9
				C823.9,1049.5,823.3,1048,822.1,1047.3z"/>
			<path class="st19" d="M885.9,1051.4c-0.5-1.8-1-3.6-1.4-5.4h-0.2c-0.5,1.8-0.9,3.6-1.4,5.5c-0.5,1.8-1,3.6-1.5,5.3l-1.1,4h8.3
				l-1.1-4C886.9,1055,886.3,1053.2,885.9,1051.4z"/>
			<path class="st19" d="M799.1,985.1c-1.7-1.1-4.2-1.7-7.6-1.7h-6.7v16h6.7c6.7,0,10.1-2.8,10.1-8.4
				C801.7,988.2,800.8,986.2,799.1,985.1z"/>
			<path class="st19" d="M834.7,998.4c-0.8-2.4-1.5-4.9-2.1-7.5c-0.7-2.6-1.3-5.1-2-7.7h-0.3c-0.7,2.6-1.3,5.1-2,7.7
				c-0.7,2.6-1.4,5-2.1,7.5l-1.6,5.6h11.7L834.7,998.4z"/>
			<path class="st19" d="M877.4,998.4c-0.7-2.4-1.5-4.9-2.1-7.5c-0.7-2.6-1.4-5.1-2-7.7H873c-0.7,2.6-1.3,5.1-2,7.7
				c-0.7,2.6-1.4,5-2.1,7.5l-1.6,5.6H879L877.4,998.4z"/>
			<path class="st19" d="M952,916.4c-22.2,0-41.5,12.7-51,31.3H696.7c-11.5,0-20.8,9.4-20.8,20.8v114.6c0,11.5,9.4,20.8,20.8,20.8
				h270.9c11.5,0,20.8-9.4,20.8-20.8v-65.2c12.7-10.5,20.8-26.4,20.8-44.2C1009.3,942.1,983.6,916.4,952,916.4z M868.5,976.9h9.6
				l15,46h-8.6l-3.6-12.4h-15.5l-3.6,12.4h-8.3L868.5,976.9z M825.7,976.9h9.6l15,46h-8.6l-3.6-12.4h-15.5l-3.6,12.4h-8.3
				L825.7,976.9z M710.3,976.9h8.2v18.5H737v-18.5h8.2v46H737v-20.4h-18.6v20.4h-8.2V976.9z M727.3,1073.4c-1.7,0.8-3.6,1.2-5.6,1.2
				c-2.1,0-4-0.4-5.8-1.1c-1.8-0.7-3.4-1.8-4.7-3.2c-1.3-1.4-2.4-3.2-3.1-5.3c-0.8-2.1-1.1-4.5-1.1-7.2c0-2.7,0.4-5,1.2-7.1
				c0.8-2.1,1.8-3.9,3.2-5.4c1.4-1.5,3-2.6,4.8-3.3c1.8-0.8,3.8-1.1,5.9-1.1c2,0,3.8,0.4,5.3,1.3c1.6,0.8,2.9,1.8,3.9,2.9l-3.2,3.6
				c-0.8-0.8-1.7-1.5-2.7-2c-0.9-0.5-2.1-0.7-3.3-0.7c-1.4,0-2.6,0.3-3.7,0.8c-1.1,0.5-2.1,1.3-2.9,2.3c-0.8,1-1.4,2.2-1.9,3.7
				c-0.4,1.5-0.7,3.1-0.7,4.9c0,3.7,0.8,6.6,2.4,8.7c1.6,2.1,3.8,3.2,6.5,3.2c1.5,0,2.7-0.3,3.8-0.8c1.1-0.6,2.1-1.4,3-2.4l3.2,3.5
				C730.5,1071.4,729,1072.6,727.3,1073.4z M761.6,1064.7c-0.7,2.1-1.7,3.9-3,5.3c-1.3,1.5-2.8,2.6-4.6,3.4
				c-1.8,0.8-3.7,1.2-5.8,1.2s-4.1-0.4-5.8-1.2c-1.8-0.8-3.3-1.9-4.5-3.4c-1.3-1.5-2.2-3.3-2.9-5.3c-0.7-2.1-1-4.5-1-7.1
				c0-2.6,0.4-5,1-7c0.7-2.1,1.7-3.8,2.9-5.3c1.3-1.4,2.8-2.5,4.5-3.3c1.8-0.8,3.7-1.1,5.8-1.1c2.1,0,4.1,0.4,5.8,1.1
				c1.8,0.8,3.3,1.9,4.6,3.3c1.3,1.4,2.3,3.2,3,5.3c0.7,2.1,1,4.4,1,7C762.6,1060.2,762.3,1062.6,761.6,1064.7z M765,1022.9h-8.2
				v-46h8.2V1022.9z M797.9,1074h-5.4v-14.9c0-0.8,0-1.6,0.1-2.5c0.1-0.9,0.1-1.8,0.2-2.7c0.1-0.9,0.1-1.8,0.2-2.7
				c0.1-0.9,0.2-1.7,0.3-2.5h-0.2l-2.6,7.4l-5.6,14.8h-2.7l-5.6-14.8l-2.6-7.4h-0.2c0.1,0.8,0.1,1.6,0.2,2.5
				c0.1,0.9,0.2,1.8,0.3,2.7c0.1,0.9,0.2,1.8,0.2,2.7c0.1,0.9,0.1,1.7,0.1,2.5v14.9h-5.3v-32.5h0h6.4l5.9,16l2.1,6.2h0.2l2.1-6.2
				l5.8-16h6.4L797.9,1074L797.9,1074z M799.1,1005.1c-2.1,0.6-4.4,0.9-6.9,0.9h-7.3v16.9h-8.2v-46h15.5c2.5,0,4.9,0.2,7,0.7
				c2.1,0.5,4,1.3,5.5,2.4c1.5,1.1,2.8,2.6,3.7,4.4c0.9,1.8,1.3,4,1.3,6.7c0,2.5-0.4,4.7-1.3,6.6c-0.9,1.9-2.1,3.4-3.7,4.7
				C803.1,1003.6,801.2,1004.5,799.1,1005.1z M828.6,1056.2c-0.6,1.3-1.5,2.4-2.6,3.3c-1.1,0.9-2.4,1.5-3.9,1.9
				c-1.5,0.4-3.1,0.6-4.9,0.6H812v11.9h-5.8v-32.5l0,0h11c1.8,0,3.4,0.2,5,0.5c1.5,0.3,2.8,0.9,3.9,1.7c1.1,0.8,2,1.8,2.6,3.1
				c0.6,1.3,0.9,2.9,0.9,4.8C829.5,1053.3,829.2,1054.9,828.6,1056.2z M855,1074h-19.3v-32.5h5.8v27.7H855V1074z M866.4,1074h-5.8
				v-32.5h5.8V1074z M892.4,1074l-2.5-8.8h-10.9l-2.5,8.8h-5.9l10.6-32.5h6.8l10.6,32.5H892.4z M926.9,1074h-5.9l-10.2-18.3
				l-3.3-6.9h-0.2c0.1,1.7,0.3,3.5,0.5,5.4c0.2,1.9,0.3,3.8,0.3,5.6v14.2h-5.5v-32.6h5.9l10.2,18.3l3.3,6.9h0.2
				c-0.1-1.7-0.3-3.5-0.5-5.5c-0.2-1.9-0.3-3.8-0.3-5.6v-14.1h5.5L926.9,1074L926.9,1074z M956.9,1046.3h-9.4v27.7h-5.8v-27.7h-9.4
				v-4.9h24.6L956.9,1046.3L956.9,1046.3z M988.5,1003.1c-8.6,10.6-21.7,17.5-36.5,17.5c-25.9,0-46.9-21-46.9-46.9
				c0-9.6,2.9-18.6,7.9-26c8.4-12.6,22.7-20.8,39-20.8c25.9,0,46.9,21,46.9,46.9C998.9,984.8,995,995,988.5,1003.1z"/>
			<path class="st19" d="M748.2,1045.9c-2.6,0-4.6,1-6.1,3.1c-1.5,2.1-2.3,4.9-2.3,8.6c0,1.8,0.2,3.5,0.6,4.9c0.4,1.5,1,2.7,1.7,3.8
				c0.7,1,1.6,1.8,2.6,2.4c1,0.6,2.2,0.8,3.5,0.8c1.3,0,2.4-0.3,3.5-0.8c1-0.6,1.9-1.4,2.6-2.4c0.7-1.1,1.3-2.3,1.7-3.8
				c0.4-1.5,0.6-3.1,0.6-4.9c0-3.6-0.8-6.5-2.3-8.6C752.9,1046.9,750.8,1045.9,748.2,1045.9z"/>
			<path class="st19" d="M978.6,951.8c-1.3-1.3-3.3-1.3-4.6,0l-28.4,28.4l-14.6-14.6c-1.3-1.3-3.3-1.3-4.6,0l-4.6,4.6
				c-1.3,1.3-1.3,3.4,0,4.6l20.6,20.7c1.3,1.3,3.3,1.3,4.6,0l35.4-35.4c1.3-1.3,1.3-3.3,0-4.6L978.6,951.8z"/>
		</g>
	</g>
	<g>
		<path class="st48" d="M277.9,749.4h80.2c4.7,0,8.5-3.8,8.5-8.5v-50.3c0-3.3-2-6.4-5-7.8c-3-1.3-6.1-2.6-9.5-3.7v-15.2
			c0-18.8-15.3-34.1-34.1-34.1c-18.8,0-34.1,15.3-34.1,34.1v15.2c-3.4,1.1-6.5,2.4-9.5,3.7c-3,1.4-5,4.4-5,7.8v50.3
			C269.4,745.6,273.2,749.4,277.9,749.4z M303.5,663.9c0-8,6.5-14.5,14.5-14.5c8,0,14.5,6.5,14.5,14.5v10.6c-9.7-1.3-19.4-1.3-29,0
			V663.9z M299.2,707.8c2.5-2.5,6.5-2.5,9,0l5,5l14.7-14.7c2.5-2.5,6.5-2.5,9,0c2.5,2.5,2.5,6.5,0,9l-19.2,19.2
			c-1.2,1.2-2.9,1.9-4.5,1.9s-3.3-0.6-4.5-1.9l-9.5-9.5C296.7,714.4,296.7,710.3,299.2,707.8z"/>
		<path class="st49" d="M298.6,798.6l-32.3-37.3c-1.5-1.7-3.5-2.7-5.8-2.9c-2.2-0.1-4.4,0.6-6.1,2.1c-2.8,2.5-3.6,6.6-1.9,10
			l0.9,1.8c4.9,9.6,10.7,19,17.3,27.7l5.6,7.5c0.9,1.2,1.3,2.7,1.1,4.1c-0.2,1.5-1,2.8-2.2,3.7c-1.2,0.9-2.7,1.3-4.1,1.1
			c-1.5-0.2-2.8-1-3.7-2.2l-5.6-7.5c-6.9-9.2-13-19.1-18.3-29.3l-0.9-1.8c-4-7.9-2.2-17.6,4.4-23.5c0.5-0.4,1-0.9,1.6-1.2
			l-11.8-29.8c-1.4-3.4-4.7-5.9-8.3-6.2c-2.8-0.2-5.4,0.7-7.5,2.6c-2,1.9-3.1,4.5-3.1,7.3l1.3,77c0.1,7.2,3,14,8,19.2l29.1,29.6
			h49.2l-0.9-37.4C304.2,807.9,302.1,802.6,298.6,798.6z"/>
		<path class="st49" d="M256.8,880.6c0,2.6,2.1,4.7,4.7,4.7h39.2c2.6,0,4.7-2.1,4.7-4.7v-19.3h-48.6V880.6z"/>
		<path class="st49" d="M415.2,717.6c-2-1.9-4.7-2.9-7.5-2.6c-3.7,0.3-7,2.7-8.3,6.2l-11.8,29.8c0.5,0.4,1,0.8,1.6,1.2
			c6.6,5.9,8.4,15.5,4.4,23.5l-0.9,1.8c-5.2,10.2-11.4,20.1-18.3,29.3l-5.6,7.5c-0.9,1.2-2.2,2-3.7,2.2c-1.5,0.2-3-0.2-4.1-1.1
			c-1.2-0.9-2-2.2-2.2-3.7c-0.2-1.5,0.2-2.9,1.1-4.1l5.6-7.5c6.5-8.7,12.3-18,17.3-27.7l0.9-1.8c1.7-3.4,0.9-7.5-1.9-10
			c-1.7-1.5-3.8-2.2-6.1-2.1c-2.3,0.2-4.3,1.2-5.8,2.9l-32.3,37.3c-3.5,4.1-5.6,9.3-5.9,14.7l-0.9,37.4h49.2L409,821
			c5.1-5.1,7.9-11.9,8-19.2l1.3-77C418.3,722.1,417.2,719.5,415.2,717.6z"/>
		<path class="st49" d="M330.7,880.6c0,2.6,2.1,4.7,4.7,4.7h39.2c2.6,0,4.7-2.1,4.7-4.7v-19.3h-48.6V880.6z"/>
	</g>
	<g>
		<path class="st49" d="M221,937.9c2.1,0,3.7-0.4,4.6-1.1c1-0.7,1.5-1.7,1.5-3c0-0.8-0.2-1.5-0.5-2c-0.3-0.6-0.8-1.1-1.4-1.5
			c-0.6-0.4-1.4-0.9-2.2-1.3c-0.9-0.4-1.9-0.8-3-1.2c-1.1-0.4-2.2-0.8-3.3-1.3c-1-0.5-2-1.1-2.8-1.8c-0.8-0.7-1.4-1.6-1.9-2.6
			c-0.5-1-0.7-2.2-0.7-3.6c0-2.9,1-5.2,3-6.9c2-1.7,4.8-2.5,8.3-2.5c2,0,3.8,0.2,5.4,0.7c1.6,0.5,2.8,0.9,3.7,1.5l-1.8,4.8
			c-1.1-0.6-2.2-1.1-3.5-1.4c-1.3-0.3-2.6-0.5-3.9-0.5c-1.6,0-2.8,0.3-3.7,1c-0.9,0.7-1.3,1.6-1.3,2.8c0,0.7,0.1,1.3,0.4,1.8
			c0.3,0.5,0.7,1,1.3,1.4c0.5,0.4,1.2,0.8,1.9,1.1c0.7,0.3,1.5,0.7,2.4,1c1.5,0.6,2.9,1.1,4.1,1.7c1.2,0.6,2.2,1.3,3,2.1
			c0.8,0.8,1.5,1.7,1.9,2.8c0.4,1.1,0.7,2.4,0.7,3.9c0,2.9-1,5.2-3.1,6.8c-2.1,1.6-5.1,2.4-9.1,2.4c-1.3,0-2.6-0.1-3.7-0.3
			c-1.1-0.2-2.1-0.4-3-0.6c-0.9-0.2-1.6-0.5-2.2-0.8c-0.6-0.3-1.1-0.5-1.5-0.7l1.7-4.8c0.8,0.5,2,0.9,3.4,1.4
			C217.2,937.6,219,937.9,221,937.9z"/>
		<path class="st49" d="M238.4,942.3v-32.5h20.8v5h-14.9v8h13.3v4.9h-13.3v9.5h16.1v5H238.4z"/>
		<path class="st49" d="M279.1,943c-2.4,0-4.6-0.4-6.6-1.1c-1.9-0.7-3.6-1.8-4.9-3.3c-1.3-1.4-2.4-3.2-3.1-5.3
			c-0.7-2.1-1.1-4.5-1.1-7.2c0-2.7,0.4-5.1,1.2-7.2c0.8-2.1,2-3.9,3.4-5.3c1.4-1.5,3.1-2.6,5.1-3.3c1.9-0.8,4-1.1,6.2-1.1
			c1.3,0,2.6,0.1,3.7,0.3c1.1,0.2,2,0.4,2.9,0.7c0.8,0.3,1.5,0.5,2,0.8c0.5,0.3,0.9,0.5,1.1,0.6l-1.7,4.8c-0.7-0.5-1.8-0.9-3.2-1.3
			c-1.4-0.4-2.9-0.6-4.5-0.6c-1.4,0-2.7,0.2-3.9,0.7c-1.2,0.5-2.3,1.2-3.2,2.2c-0.9,1-1.6,2.2-2.1,3.6c-0.5,1.5-0.7,3.2-0.7,5.1
			c0,1.7,0.2,3.3,0.6,4.7c0.4,1.4,1,2.7,1.8,3.7c0.8,1.1,1.8,1.9,3.1,2.4c1.3,0.6,2.7,0.9,4.5,0.9c2.1,0,3.8-0.2,5.1-0.6
			c1.3-0.4,2.3-0.8,3-1.2l1.6,4.8c-0.4,0.3-0.9,0.5-1.5,0.8c-0.6,0.3-1.4,0.5-2.3,0.7c-0.9,0.2-1.9,0.4-3,0.6
			C281.5,942.9,280.4,943,279.1,943z"/>
		<path class="st49" d="M307.1,943c-2.2,0-4.1-0.3-5.7-1c-1.6-0.6-2.9-1.5-4-2.7c-1-1.2-1.8-2.5-2.3-4.1c-0.5-1.6-0.7-3.3-0.7-5.2
			v-20.3h5.9v19.7c0,1.5,0.2,2.7,0.5,3.8c0.3,1,0.8,1.9,1.4,2.6s1.3,1.1,2.2,1.5c0.8,0.3,1.8,0.5,2.8,0.5c1,0,2-0.2,2.8-0.5
			c0.8-0.3,1.6-0.8,2.2-1.5c0.6-0.7,1.1-1.5,1.4-2.6c0.3-1,0.5-2.3,0.5-3.8v-19.7h5.9v20.3c0,1.9-0.3,3.6-0.8,5.2
			c-0.5,1.6-1.3,2.9-2.3,4.1c-1,1.2-2.4,2.1-4,2.7C311.2,942.7,309.3,943,307.1,943z"/>
		<path class="st49" d="M336.4,909.5c4.7,0,8.3,0.9,10.8,2.6c2.5,1.7,3.7,4.3,3.7,7.9c0,4.4-2.2,7.4-6.5,8.9c0.6,0.7,1.3,1.6,2,2.6
			c0.7,1,1.5,2.2,2.3,3.4c0.8,1.2,1.5,2.4,2.2,3.7c0.7,1.3,1.4,2.5,1.9,3.7h-6.6c-0.6-1.1-1.2-2.3-1.9-3.4c-0.7-1.1-1.4-2.2-2.1-3.3
			c-0.7-1.1-1.4-2.1-2.1-3c-0.7-1-1.3-1.8-1.9-2.6c-0.4,0-0.8,0.1-1.1,0.1s-0.6,0-0.9,0h-2.9v12.3h-5.9v-32c1.4-0.3,3-0.5,4.6-0.6
			C333.7,909.5,335.2,909.5,336.4,909.5z M336.9,914.6c-1.2,0-2.4,0.1-3.5,0.1v10.5h2.6c1.4,0,2.7-0.1,3.8-0.2
			c1.1-0.2,2-0.4,2.7-0.8c0.7-0.4,1.3-0.9,1.7-1.6c0.4-0.7,0.6-1.6,0.6-2.6c0-1-0.2-1.8-0.6-2.5c-0.4-0.7-0.9-1.2-1.6-1.6
			c-0.7-0.4-1.5-0.7-2.5-0.9C339.1,914.7,338,914.6,336.9,914.6z"/>
		<path class="st49" d="M357.5,942.3v-32.5h20.8v5h-14.9v8h13.3v4.9h-13.3v9.5h16.1v5H357.5z"/>
		<path class="st49" d="M412.4,926c0,2.8-0.4,5.2-1.3,7.3c-0.9,2.1-2.1,3.8-3.7,5.2c-1.6,1.4-3.5,2.4-5.8,3.1c-2.3,0.7-4.8,1-7.5,1
			c-1.3,0-2.8-0.1-4.5-0.2c-1.7-0.1-3.2-0.3-4.7-0.7v-31.5c1.5-0.3,3.1-0.6,4.8-0.7c1.7-0.1,3.2-0.1,4.5-0.1c2.7,0,5.2,0.3,7.4,1
			c2.2,0.6,4.2,1.6,5.8,3c1.6,1.4,2.9,3.1,3.7,5.2C412,920.7,412.4,923.2,412.4,926z M390.8,937.4c0.3,0,0.8,0,1.4,0.1
			c0.6,0,1.3,0,2.3,0c4,0,6.9-1,8.9-3c2-2,2.9-4.8,2.9-8.5c0-3.7-1-6.5-2.9-8.5c-1.9-2-4.9-3-8.8-3c-1.7,0-3,0.1-3.7,0.1V937.4z"/>
	</g>
</g>
</svg>
